<?xml version="1.0" standalone="no"?>
<!DOCTYPE svg PUBLIC "-//W3C//DTD SVG 20010904//EN"
 "http://www.w3.org/TR/2001/REC-SVG-20010904/DTD/svg10.dtd">
<svg version="1.0" xmlns="http://www.w3.org/2000/svg"
 width="1077.000000pt" height="1077.000000pt" viewBox="0 0 1077.000000 1077.000000"
 preserveAspectRatio="xMidYMid meet">
<metadata>
Created by potrace 1.11, written by Peter Selinger 2001-2013
</metadata>
<g transform="translate(0.000000,1077.000000) scale(0.100000,-0.100000)"
fill="#000000" stroke="none">
<path d="M5366 10755 c-3 -8 -85 -135 -183 -282 -98 -148 -180 -272 -183 -278
-5 -11 -120 -187 -127 -195 -3 -3 -193 -5 -423 -5 -265 0 -423 -4 -429 -10 -5
-6 -12 -68 -16 -140 -9 -167 -14 -254 -30 -495 -2 -36 -6 -110 -10 -165 -3
-55 -7 -131 -10 -170 -2 -38 -7 -117 -10 -175 -4 -58 -8 -130 -10 -160 -2 -30
-7 -103 -10 -161 l-6 -106 53 -1 c97 0 89 5 86 -64 -3 -56 -5 -62 -28 -69 -14
-4 -101 -28 -195 -54 -93 -26 -174 -51 -180 -55 -5 -3 -30 -12 -55 -19 -48
-14 -251 -93 -335 -131 -168 -75 -479 -246 -561 -309 -12 -9 -32 -23 -44 -31
-39 -26 -225 -173 -232 -184 -4 -6 -8 -1456 -8 -3222 l0 -3211 42 -39 c174
-159 541 -379 868 -517 179 -76 502 -187 615 -211 6 -2 28 -8 50 -14 22 -6 51
-13 65 -16 14 -3 79 -17 145 -31 66 -15 134 -28 150 -31 17 -2 39 -5 50 -8 11
-2 40 -7 65 -11 25 -4 52 -9 60 -10 42 -7 285 -35 350 -40 369 -27 774 -24
1095 9 28 3 75 8 105 11 30 3 66 8 80 10 14 2 45 6 70 10 70 10 92 14 130 20
60 10 283 56 325 67 22 5 50 12 62 14 32 6 245 69 348 103 105 34 289 103 350
130 105 47 349 169 401 201 36 22 68 40 71 40 13 0 251 165 333 231 l90 72 0
3222 0 3222 -87 70 c-257 206 -578 389 -898 512 -60 24 -119 47 -130 52 -30
13 -263 86 -325 103 -30 8 -62 17 -70 20 -8 3 -26 8 -40 10 -14 3 -45 11 -70
17 -25 6 -54 13 -65 14 -11 2 -21 4 -22 5 -4 3 -10 5 -63 15 -25 5 -48 10 -52
11 -5 1 -14 2 -21 3 -21 2 -19 81 2 82 9 1 90 1 179 1 l164 0 -7 126 c-14 240
-22 374 -30 497 -3 39 -7 111 -10 160 -3 50 -7 122 -10 160 -2 39 -7 120 -10
180 -3 61 -7 128 -10 150 -2 22 -7 99 -11 170 -3 72 -10 132 -14 135 -5 3
-197 5 -428 5 l-419 0 -158 239 c-86 132 -201 306 -254 388 -53 81 -99 148
-102 148 -4 0 -9 -7 -13 -15z"/>
<path d="M7877 515 c-119 -41 -196 -168 -177 -292 10 -64 32 -105 76 -148 51
-50 91 -67 169 -72 88 -7 157 20 211 79 51 57 67 101 68 183 0 104 -44 180
-135 229 -61 34 -150 43 -212 21z m187 -82 c51 -36 79 -91 82 -161 6 -120 -75
-212 -184 -212 -135 0 -220 139 -173 281 18 54 76 110 126 121 46 11 110 -1
149 -29z"/>
<path d="M7867 408 c-12 -7 -19 -287 -7 -289 3 -1 17 -2 33 -3 27 -2 27 -1 27
61 0 82 18 83 61 3 17 -33 35 -61 38 -61 25 -6 52 -5 56 1 2 3 -11 32 -30 64
l-35 57 23 8 c69 26 68 126 -1 152 -32 12 -149 17 -165 7z m144 -64 c21 -26
-1 -48 -50 -51 -40 -1 -41 -1 -41 33 0 33 1 34 39 34 23 0 44 -6 52 -16z"/>
</g>
</svg>
